General
Count                                    : 362
Count of stream of this kind             : 1
Kind of stream                           : General
Kind of stream                           : General
Stream identifier                        : 0
Unique ID                                : 258149175263446018712006051103018491455
Unique ID                                : 258149175263446018712006051103018491455 (0xC235B901493C2D59E76B8DAA014A9E3F)
Count of video streams                   : 1
Count of audio streams                   : 2
Count of text streams                    : 4
Video_Format_List                        : HEVC
Video_Format_WithHint_List               : HEVC
Codecs Video                             : HEVC
Video_Language_List                      : Japanese
Audio_Format_List                        : Opus / Opus
Audio_Format_WithHint_List               : Opus / Opus
Audio codecs                             : Opus / Opus
Audio_Language_List                      : Japanese / English
Audio_Channels_Total                     : 12
Text_Format_List                         : ASS / ASS / PGS / ASS
Text_Format_WithHint_List                : ASS / ASS / PGS / ASS
Text codecs                              : ASS / ASS / PGS / ASS
Text_Language_List                       : English / English / Italian / Japanese
Complete name                            : M:\Videos\Movies\A Silent Voice.mkv
Folder name                              : M:\Videos\Movies
File name extension                      : A Silent Voice.mkv
File name                                : A Silent Voice
File extension                           : mkv
Format                                   : Matroska
Format                                   : Matroska
Format/Url                               : https://matroska.org/downloads/windows.html
Format/Extensions usually used           : mkv mk3d mka mks
Commercial name                          : Matroska
Format version                           : Version 4
File size                                : 2331954408
File size                                : 2.17 GiB
File size                                : 2 GiB
File size                                : 2.2 GiB
File size                                : 2.17 GiB
File size                                : 2.172 GiB
Duration                                 : 7782781
Duration                                 : 2 h 9 min
Duration                                 : 2 h 9 min 42 s 781 ms
Duration                                 : 2 h 9 min
Duration                                 : 02:09:42.781
Duration                                 : 02:09:35:00
Duration                                 : 02:09:42.781 (02:09:35:00)
Overall bit rate                         : 2397040
Overall bit rate                         : 2 397 kb/s
Frame rate                               : 23.976
Frame rate                               : 23.976 FPS
Frame count                              : 186600
IsStreamable                             : Yes
Encoded date                             : 2021-11-04 14:48:03 UTC
File creation date                       : 2025-03-01 20:12:07.740 UTC
File creation date (local)               : 2025-03-01 22:12:07.740
File last modification date              : 2025-03-01 20:15:33.546 UTC
File last modification date (local)      : 2025-03-01 22:15:33.546
Writing application                      : mkvmerge v59.0.0 ('Shining Star') 64-bit
Writing application                      : mkvmerge 59.0.0 ('Shining Star') 64-bit
Encoded_Application_Name                 : mkvmerge
Encoded_Application_Version              : 59.0.0 ('Shining Star') 64-bit
Writing library                          : libebml v1.4.2 + libmatroska v1.6.4 / Lavf59.4.100
Writing library                          : libebml v1.4.2 + libmatroska v1.6.4 / Lavf59.4.100
Attachments                              : blzee.ttf / brankovic.ttf / Cabin-SemiBold.ttf / Cabin-SemiBoldItalic.ttf / Drawing with markers.ttf / Ensimmainen kevat.ttf / Giraffenhals_condensed.otf / JanieHmkBold.ttf / Joyful Juliana.ttf / Lato-Bold.ttf / Lato-Regular.ttf / MSGEONR1.TTF / PANTON-BOLD.OTF / PiranhaSexual.ttf / PUSAB_.otf / QuorumStd-Book.otf / Texas Woman - TTF.ttf / Typografix-demo.otf / upcjb.ttf / upcjl.ttf / whatever it takes.ttf / 9SALERNO.TTF / 78936__.TTF / A little sunshine.ttf / AppleGaramond-Light.ttf / arial.ttf / Arvo-Bold.ttf
HDCD                                     : 0
VALID_BITS                               : 24

Video
Count                                    : 390
Count of stream of this kind             : 1
Kind of stream                           : Video
Kind of stream                           : Video
Stream identifier                        : 0
StreamOrder                              : 0
ID                                       : 1
ID                                       : 1
Unique ID                                : 6427254889151431309
Format                                   : HEVC
Format                                   : HEVC
Format/Info                              : High Efficiency Video Coding
Format/Url                               : http://www.itu.int
Commercial name                          : HEVC
Format profile                           : Main 10@L5@Main
Internet media type                      : video/H265
Codec ID                                 : V_MPEGH/ISO/HEVC
Duration                                 : 7782775.000000
Duration                                 : 2 h 9 min
Duration                                 : 2 h 9 min 42 s 775 ms
Duration                                 : 2 h 9 min
Duration                                 : 02:09:42.775
Duration                                 : 02:09:35:00
Duration                                 : 02:09:42.775 (02:09:35:00)
Bit rate                                 : 1927028
Bit rate                                 : 1 927 kb/s
Width                                    : 1920
Width                                    : 1 920 pixels
Height                                   : 1036
Height                                   : 1 036 pixels
Stored_Height                            : 1040
Sampled_Width                            : 1920
Sampled_Height                           : 1036
Pixel aspect ratio                       : 1.000
Display aspect ratio                     : 1.853
Display aspect ratio                     : 1.85:1
Frame rate mode                          : CFR
Frame rate mode                          : Constant
Frame rate                               : 23.976
Frame rate                               : 23.976 (24000/1001) FPS
FrameRate_Num                            : 24000
FrameRate_Den                            : 1001
Frame count                              : 186600
Color space                              : YUV
Chroma subsampling                       : 4:2:0
Chroma subsampling                       : 4:2:0
Bit depth                                : 10
Bit depth                                : 10 bits
Bits/(Pixel*Frame)                       : 0.040
Delay                                    : 0
Delay                                    : 00:00:00.000
Delay                                    : 00:00:00:00
Delay                                    : 00:00:00.000 (00:00:00:00)
Delay, origin                            : Container
Delay, origin                            : Container
Stream size                              : 1874703923
Stream size                              : 1.75 GiB (80%)
Stream size                              : 2 GiB
Stream size                              : 1.7 GiB
Stream size                              : 1.75 GiB
Stream size                              : 1.746 GiB
Stream size                              : 1.75 GiB (80%)
Proportion of this stream                : 0.80392
Title                                    : [Judas] x265 10b
Writing library                          : x265 - 3.5+19-8003e4382:[Windows][MSVC 1929][64 bit] 10bit
Writing library                          : x265 3.5+19-8003e4382:[Windows][MSVC 1929][64 bit] 10bit
Encoded_Library_Name                     : x265
Encoded_Library_Version                  : 3.5+19-8003e4382:[Windows][MSVC 1929][64 bit] 10bit
Encoding settings                        : cpuid=1111039 / frame-threads=5 / numa-pools=+ / wpp / pmode / no-pme / no-psnr / no-ssim / log-level=2 / csv / csv-log-level=2 / input-csp=1 / input-res=1920x1036 / interlace=0 / total-frames=186600 / level-idc=0 / high-tier=1 / uhd-bd=0 / ref=6 / no-allow-non-conformance / no-repeat-headers / annexb / no-aud / no-eob / no-eos / no-hrd / info / hash=0 / no-temporal-layers / open-gop / min-keyint=24 / keyint=360 / gop-lookahead=0 / bframes=10 / b-adapt=2 / b-pyramid / bframe-bias=0 / rc-lookahead=250 / lookahead-slices=4 / scenecut=35 / no-hist-scenecut / radl=0 / no-splice / no-intra-refresh / ctu=64 / min-cu-size=8 / rect / amp / max-tu-size=32 / tu-inter-depth=4 / tu-intra-depth=4 / limit-tu=0 / rdoq-level=2 / dynamic-rd=0.00 / no-ssim-rd / signhide / no-tskip / nr-intra=0 / nr-inter=0 / no-constrained-intra / strong-intra-smoothing / max-merge=5 / limit-refs=0 / limit-modes / me=3 / subme=4 / merange=57 / temporal-mvp / no-frame-dup / hme / Level / merange / L0,L1,L2=16,32,57 / weightp / weightb / no-analyze-src-pics / deblock=0:0 / no-sao / no-sao-non-deblock / rd=6 / selective-sao=0 / no-early-skip / no-rskip / no-fast-intra / no-tskip-fast / no-cu-lossless / b-intra / no-splitrd-skip / rdpenalty=0 / psy-rd=1.10 / psy-rdoq=1.80 / rd-refine / no-lossless / cbqpoffs=-1 / crqpoffs=-1 / rc=crf / crf=18.5 / qcomp=0.63 / qpstep=1 / stats-write=0 / stats-read=0 / ipratio=1.30 / pbratio=1.20 / aq-mode=3 / aq-strength=0.80 / cutree / zone-count=0 / no-strict-cbr / qg-size=32 / no-rc-grain / qpmax=69 / qpmin=0 / no-const-vbv / sar=0 / overscan=0 / videoformat=5 / range=0 / colorprim=2 / transfer=2 / colormatrix=2 / chromaloc=0 / display-window=0 / cll=0,0 / min-luma=0 / max-luma=1023 / log2-max-poc-lsb=8 / vui-timing-info / vui-hrd-info / slices=1 / no-opt-qp-pps / no-opt-ref-list-length-pps / no-multi-pass-opt-rps / scenecut-bias=0.05 / hist-threshold=0.03 / no-opt-cu-delta-qp / no-aq-motion / no-hdr10 / no-hdr10-opt / no-dhdr10-opt / no-idr-recovery-sei / analysis-reuse-level=0 / analysis-save-reuse-level=0 / analysis-load-reuse-level=0 / scale-factor=0 / refine-intra=0 / refine-inter=0 / refine-mv=1 / refine-ctu-distortion=0 / no-limit-sao / ctu-info=0 / no-lowpass-dct / refine-analysis-type=0 / copy-pic=1 / max-ausize-factor=1.0 / no-dynamic-refine / no-single-sei / no-hevc-aq / no-svt / no-field / qp-adaptation-range=1.00 / scenecut-aware-qp=0conformance-window-offsets / right=0 / bottom=0 / decoder-max-rate=0 / no-vbv-live-multi-pass
Language                                 : ja
Language                                 : Japanese
Language                                 : Japanese
Language                                 : ja
Language                                 : jpn
Language                                 : ja
Default                                  : Yes
Default                                  : Yes
Forced                                   : No
Forced                                   : No

Audio #1
Count                                    : 285
Count of stream of this kind             : 2
Kind of stream                           : Audio
Kind of stream                           : Audio
Stream identifier                        : 0
Stream identifier                        : 1
StreamOrder                              : 1
ID                                       : 2
ID                                       : 2
Unique ID                                : 2703631784536945756
Format                                   : Opus
Format                                   : Opus
Format/Url                               : http://opus-codec.org/
Commercial name                          : Opus
Internet media type                      : audio/opus
Codec ID                                 : A_OPUS
Codec ID/Url                             : http://opus-codec.org
Duration                                 : 7782781.000000
Duration                                 : 2 h 9 min
Duration                                 : 2 h 9 min 42 s 781 ms
Duration                                 : 2 h 9 min
Duration                                 : 02:09:42.781
Duration                                 : 02:09:42.781
Bit rate                                 : 226353
Bit rate                                 : 226 kb/s
Channel(s)                               : 6
Channel(s)                               : 6 channels
Channel positions                        : Front: L C R, Back: L R, LFE
Channel positions                        : 3/0/2.1
Channel layout                           : L R C Lb Rb LFE
Samples per frame                        : 960
Sampling rate                            : 48000
Sampling rate                            : 48.0 kHz
Samples count                            : 373573488
Frame rate                               : 50.000
Frame rate                               : 50.000 FPS (960 SPF)
Frame count                              : 389139
Bit depth                                : 32
Bit depth                                : 32 bits
Compression mode                         : Lossy
Compression mode                         : Lossy
Delay                                    : 0
Delay                                    : 00:00:00.000
Delay                                    : 00:00:00.000
Delay, origin                            : Container
Delay, origin                            : Container
Delay relative to video                  : 0
Delay relative to video                  : 00:00:00.000
Delay relative to video                  : 00:00:00.000
Stream size                              : 220207871
Stream size                              : 210 MiB (9%)
Stream size                              : 210 MiB
Stream size                              : 210 MiB
Stream size                              : 210 MiB
Stream size                              : 210.0 MiB
Stream size                              : 210 MiB (9%)
Proportion of this stream                : 0.09443
Title                                    : [Judas] JAP Surround (Opus 256Kbps)
Writing library                          : Lavc59.3.101 libopus
Writing library                          : Lavc59.3.101 libopus
Language                                 : ja
Language                                 : Japanese
Language                                 : Japanese
Language                                 : ja
Language                                 : jpn
Language                                 : ja
Default                                  : No
Default                                  : No
Forced                                   : No
Forced                                   : No

Audio #2
Count                                    : 285
Count of stream of this kind             : 2
Kind of stream                           : Audio
Kind of stream                           : Audio
Stream identifier                        : 1
Stream identifier                        : 2
StreamOrder                              : 2
ID                                       : 3
ID                                       : 3
Unique ID                                : 748301234632935227
Format                                   : Opus
Format                                   : Opus
Format/Url                               : http://opus-codec.org/
Commercial name                          : Opus
Internet media type                      : audio/opus
Codec ID                                 : A_OPUS
Codec ID/Url                             : http://opus-codec.org
Duration                                 : 7782002.000000
Duration                                 : 2 h 9 min
Duration                                 : 2 h 9 min 42 s 2 ms
Duration                                 : 2 h 9 min
Duration                                 : 02:09:42.002
Duration                                 : 02:09:42.002
Bit rate                                 : 215691
Bit rate                                 : 216 kb/s
Channel(s)                               : 6
Channel(s)                               : 6 channels
Channel positions                        : Front: L C R, Back: L R, LFE
Channel positions                        : 3/0/2.1
Channel layout                           : L R C Lb Rb LFE
Samples per frame                        : 960
Sampling rate                            : 48000
Sampling rate                            : 48.0 kHz
Samples count                            : 373536096
Frame rate                               : 50.000
Frame rate                               : 50.000 FPS (960 SPF)
Frame count                              : 389101
Bit depth                                : 32
Bit depth                                : 32 bits
Compression mode                         : Lossy
Compression mode                         : Lossy
Delay                                    : 0
Delay                                    : 00:00:00.000
Delay                                    : 00:00:00.000
Delay, origin                            : Container
Delay, origin                            : Container
Delay relative to video                  : 0
Delay relative to video                  : 00:00:00.000
Delay relative to video                  : 00:00:00.000
Stream size                              : 209813597
Stream size                              : 200 MiB (9%)
Stream size                              : 200 MiB
Stream size                              : 200 MiB
Stream size                              : 200 MiB
Stream size                              : 200.1 MiB
Stream size                              : 200 MiB (9%)
Proportion of this stream                : 0.08997
Title                                    : [Judas] ENG Surround (Opus 256Kbps)
Writing library                          : Lavc59.3.101 libopus
Writing library                          : Lavc59.3.101 libopus
Language                                 : en
Language                                 : English
Language                                 : English
Language                                 : en
Language                                 : eng
Language                                 : en
Default                                  : No
Default                                  : No
Forced                                   : No
Forced                                   : No

Text #1
Count                                    : 305
Count of stream of this kind             : 4
Kind of stream                           : Text
Kind of stream                           : Text
Stream identifier                        : 0
Stream identifier                        : 1
StreamOrder                              : 3
ID                                       : 4
ID                                       : 4
Unique ID                                : 3543621540940093768
Format                                   : ASS
Format                                   : ASS
Format/Url                               : http://ffdshow.sourceforge.net/tikiwiki/tiki-index.php?page=Getting+ffdshow
Commercial name                          : ASS
Codec ID                                 : S_TEXT/ASS
Codec ID/Info                            : Advanced Sub Station Alpha
Duration                                 : 7696050.000000
Duration                                 : 2 h 8 min
Duration                                 : 2 h 8 min 16 s 50 ms
Duration                                 : 2 h 8 min
Duration                                 : 02:08:16.050
Duration                                 : 02:15:19
Duration                                 : 02:08:16.050 (02:15:19)
Bit rate                                 : 2057
Bit rate                                 : 2 057 b/s
Frame rate                               : 1.055
Frame rate                               : 1.055 FPS
Frame count                              : 8119
Count of elements                        : 8119
Compression mode                         : Lossless
Compression mode                         : Lossless
Stream size                              : 1979672
Stream size                              : 1.89 MiB (0%)
Stream size                              : 2 MiB
Stream size                              : 1.9 MiB
Stream size                              : 1.89 MiB
Stream size                              : 1.888 MiB
Stream size                              : 1.89 MiB (0%)
Proportion of this stream                : 0.00085
Title                                    : English [w/Honorifics]
Language                                 : en
Language                                 : English
Language                                 : English
Language                                 : en
Language                                 : eng
Language                                 : en
Default                                  : No
Default                                  : No
Forced                                   : No
Forced                                   : No

Text #2
Count                                    : 305
Count of stream of this kind             : 4
Kind of stream                           : Text
Kind of stream                           : Text
Stream identifier                        : 1
Stream identifier                        : 2
StreamOrder                              : 4
ID                                       : 5
ID                                       : 5
Unique ID                                : 5050555719077443373
Format                                   : ASS
Format                                   : ASS
Format/Url                               : http://ffdshow.sourceforge.net/tikiwiki/tiki-index.php?page=Getting+ffdshow
Commercial name                          : ASS
Codec ID                                 : S_TEXT/ASS
Codec ID/Info                            : Advanced Sub Station Alpha
Duration                                 : 7696050.000000
Duration                                 : 2 h 8 min
Duration                                 : 2 h 8 min 16 s 50 ms
Duration                                 : 2 h 8 min
Duration                                 : 02:08:16.050
Duration                                 : 02:15:19
Duration                                 : 02:08:16.050 (02:15:19)
Bit rate                                 : 2055
Bit rate                                 : 2 055 b/s
Frame rate                               : 1.055
Frame rate                               : 1.055 FPS
Frame count                              : 8119
Count of elements                        : 8119
Compression mode                         : Lossless
Compression mode                         : Lossless
Stream size                              : 1976990
Stream size                              : 1.89 MiB (0%)
Stream size                              : 2 MiB
Stream size                              : 1.9 MiB
Stream size                              : 1.89 MiB
Stream size                              : 1.885 MiB
Stream size                              : 1.89 MiB (0%)
Proportion of this stream                : 0.00085
Title                                    : English [Western Naming Order]
Language                                 : en
Language                                 : English
Language                                 : English
Language                                 : en
Language                                 : eng
Language                                 : en
Default                                  : No
Default                                  : No
Forced                                   : No
Forced                                   : No

Text #3
Count                                    : 305
Count of stream of this kind             : 4
Kind of stream                           : Text
Kind of stream                           : Text
Stream identifier                        : 2
Stream identifier                        : 3
StreamOrder                              : 5
ID                                       : 6
ID                                       : 6
Unique ID                                : 18145007467797581221
Format                                   : PGS
Format                                   : PGS
Commercial name                          : PGS
Muxing mode                              : zlib
Codec ID                                 : S_HDMV/PGS
Codec ID/Info                            : Picture based subtitle format used on BDs/HD-DVDs
Duration                                 : 7517951.000000
Duration                                 : 2 h 5 min
Duration                                 : 2 h 5 min 17 s 951 ms
Duration                                 : 2 h 5 min
Duration                                 : 02:05:17.951
Duration                                 : 01:37:36:01
Duration                                 : 02:05:17.951 (01:37:36:01)
Bit rate                                 : 32073
Bit rate                                 : 32.1 kb/s
Frame rate                               : 1.558
Frame rate                               : 1.558 FPS
Frame count                              : 11715
Count of elements                        : 11715
Stream size                              : 30141232
Stream size                              : 28.7 MiB (1%)
Stream size                              : 29 MiB
Stream size                              : 29 MiB
Stream size                              : 28.7 MiB
Stream size                              : 28.74 MiB
Stream size                              : 28.7 MiB (1%)
Proportion of this stream                : 0.01293
Title                                    : Italian (PGS)
Language                                 : it
Language                                 : Italian
Language                                 : Italian
Language                                 : it
Language                                 : ita
Language                                 : it
Default                                  : No
Default                                  : No
Forced                                   : No
Forced                                   : No

Text #4
Count                                    : 305
Count of stream of this kind             : 4
Kind of stream                           : Text
Kind of stream                           : Text
Stream identifier                        : 3
Stream identifier                        : 4
StreamOrder                              : 6
ID                                       : 7
ID                                       : 7
Unique ID                                : 6569582381835097555
Format                                   : ASS
Format                                   : ASS
Format/Url                               : http://ffdshow.sourceforge.net/tikiwiki/tiki-index.php?page=Getting+ffdshow
Commercial name                          : ASS
Codec ID                                 : S_TEXT/ASS
Codec ID/Info                            : Advanced Sub Station Alpha
Duration                                 : 7696050.000000
Duration                                 : 2 h 8 min
Duration                                 : 2 h 8 min 16 s 50 ms
Duration                                 : 2 h 8 min
Duration                                 : 02:08:16.050
Duration                                 : 01:47:14
Duration                                 : 02:08:16.050 (01:47:14)
Bit rate                                 : 1973
Bit rate                                 : 1 973 b/s
Frame rate                               : 0.836
Frame rate                               : 0.836 FPS
Frame count                              : 6433
Count of elements                        : 6433
Compression mode                         : Lossless
Compression mode                         : Lossless
Stream size                              : 1898720
Stream size                              : 1.81 MiB (0%)
Stream size                              : 2 MiB
Stream size                              : 1.8 MiB
Stream size                              : 1.81 MiB
Stream size                              : 1.811 MiB
Stream size                              : 1.81 MiB (0%)
Proportion of this stream                : 0.00081
Title                                    : English [Signs/Songs]
Language                                 : ja
Language                                 : Japanese
Language                                 : Japanese
Language                                 : ja
Language                                 : jpn
Language                                 : ja
Default                                  : No
Default                                  : No
Forced                                   : No
Forced                                   : No


